<?xml version='1.0' encoding='utf-8'?>
<svg xmlns="http://www.w3.org/2000/svg" version="1.1" width="600px" height="976px" viewBox="0 0 600 976"> <g id="layer1"> <g style="fill:rgb(50,138,143); fill-opacity:1.0; stroke-linejoin: miter"> <path d="M300.39288,537.43164Q290.12125,537.5722,282.7637,544.67773Q275.53452,552.0467,275.36102,562.352Q275.46808,572.66034,282.62424,580.069Q290.06894,587.3188,300.3009,587.4544Q310.57312,587.3351,317.94717,580.2419Q325.19162,572.8845,325.38348,562.5791Q325.2944,552.27106,318.15402,544.8509Q310.72495,537.58856,300.4947,537.4318"/> </g> <g style="fill:rgb(0,0,0); fill-opacity:1.0; stroke-linejoin: miter"> <path d="M313.09784,545.1018C313.06155,545.1018,313.03046,545.1101,313.00186,545.12665C312.94687,545.15894,312.9065,545.22656,312.81076,545.45654C312.77585,545.5404,312.7334,545.61835,312.71786,545.6287C312.70248,545.6408,312.62836,545.6689,312.55194,545.692C312.4521,545.7222,312.40268,545.7322,312.32205,545.7322L312.31686,545.7322C312.30582,545.7321,312.29416,545.7318,312.28174,545.73145C312.27182,545.73126,312.26166,545.731,312.2514,545.73096L312.2427,545.73096C312.03757,545.73096,311.77884,545.7688,311.68936,545.8135C311.53848,545.8884,311.45502,546.0155,311.37955,546.28516C311.35666,546.3708,311.35178,546.4389,311.36105,546.59143C311.3671,546.7055,311.36438,546.8037,311.35385,546.8271C311.34332,546.8504,311.30328,546.8942,311.26346,546.9264C311.2222,546.9603,311.19113,546.9946,311.1922,547.00287C311.19345,547.0129,311.15692,547.04456,311.11316,547.072C311.00195,547.14026,310.9727,547.1761,310.93536,547.2804C310.91776,547.32825,310.86908,547.4104,310.82846,547.46277C310.7352,547.5794,310.6249,547.77405,310.59933,547.8651C310.58322,547.92456,310.55798,548.0712,310.52832,548.30304C310.52405,548.3356,310.52753,548.42975,310.5398,548.51263C310.55243,548.61224,310.55304,548.6966,310.5399,548.76587C310.5302,548.82275,310.5167,548.9022,310.51132,548.94C310.4964,549.0483,310.4792,549.05884,310.2445,549.0989C310.20547,549.10535,310.17108,549.1107,310.13907,549.11487C310.06586,549.12445,310.005,549.12854,309.92953,549.12854C309.9252,549.12854,309.92084,549.1285,309.9164,549.1285C309.88593,549.12836,309.85294,549.12756,309.81573,549.1263C309.78375,549.12494,309.75034,549.1242,309.71582,549.124C309.71002,549.12396,309.7042,549.12396,309.69833,549.12396C309.4426,549.12396,309.13254,549.1537,308.92148,549.1944C308.82544,549.21295,308.74985,549.23376,308.70926,549.2552C308.69684,549.2634,308.6721,549.2683,308.65695,549.26855C308.6401,549.2689,308.60632,549.30865,308.57318,549.36694C308.5376,549.4322,308.49326,549.4818,308.44653,549.51306C308.29843,549.6095,308.21884,549.71423,307.97806,550.1315C307.9627,550.157,307.9429,550.2136,307.933,550.25543C307.89374,550.42413,307.8549,550.6368,307.85843,550.66504C307.8661,550.72485,307.8204,551.0565,307.79254,551.1428C307.7766,551.1904,307.75952,551.26855,307.75385,551.3166C307.73834,551.4604,307.6914,551.5828,307.63684,551.61847C307.61047,551.63696,307.5395,551.6629,307.4803,551.67554C307.33865,551.7036,307.2986,551.734,307.2339,551.8622C307.20407,551.92,307.16623,551.98047,307.14813,551.998C307.09824,552.0432,307.0535,552.14343,306.94196,552.46155C306.8515,552.7196,306.83752,552.78217,306.82782,552.93195C306.82303,553.0271,306.8144,553.1582,306.80722,553.2216C306.78815,553.43005,306.7975,553.62305,306.85638,554.2065C306.8882,554.52325,306.9264,554.9169,306.9409,555.08386C306.96576,555.3594,306.97083,555.3857,306.99698,555.3925C307.01447,555.397,307.02423,555.4076,307.01862,555.41675C307.01468,555.4257,307.04468,555.5418,307.08502,555.6734C307.14545,555.87,307.16943,555.926,307.21738,555.9842C307.2511,556.02374,307.27884,556.0692,307.28116,556.08746C307.2823,556.1031,307.28278,556.11053,307.28024,556.11053C307.27786,556.11053,307.2728,556.1041,307.2631,556.09155C307.25082,556.0761,307.2407,556.0685,307.23416,556.0671L307.2304,556.0671C307.2229,556.06903,307.2252,556.08563,307.2436,556.1108C307.25864,556.1359,307.27362,556.1611,307.27487,556.171C307.28607,556.2456,307.34317,556.3227,307.46384,556.42224C307.53653,556.4844,307.60553,556.5307,307.61887,556.5308C307.61905,556.5308,307.61926,556.5308,307.61945,556.53076C307.62152,556.5302,307.62344,556.53,307.62518,556.53C307.6357,556.5301,307.63968,556.5398,307.6349,556.5592C307.63254,556.5767,307.63284,556.5845,307.6376,556.5845L307.63773,556.5845C307.64,556.5845,307.64322,556.58276,307.6476,556.57947C307.6517,556.5759,307.65494,556.5737,307.65726,556.5727L307.66107,556.5727C307.6623,556.5742,307.66144,556.5784,307.65845,556.5849C307.6516,556.5976,307.66287,556.6198,307.67993,556.6345C307.69885,556.6507,307.71075,556.6779,307.7083,556.6985C307.70578,556.71655,307.71045,556.73065,307.71964,556.7307L307.72253,556.7307C307.76218,556.7392,307.7549,557.2353,307.7091,557.6608C307.7038,557.7122,307.6957,557.80774,307.69394,557.87384C307.69037,557.9385,307.67834,558.07,307.6667,558.16437C307.6551,558.2587,307.64743,558.3846,307.6515,558.44324L307.65836,558.55035L307.79214,558.6464C307.90576,558.73,307.93985,558.7459,308.03067,558.7564C308.07745,558.7626,308.14136,558.76654,308.18735,558.76685L308.19156,558.76685C308.20126,558.76685,308.21005,558.76666,308.21762,558.7663C308.22183,558.7662,308.22595,558.7661,308.23,558.7661L308.23273,558.7661C308.3178,558.76654,308.36877,558.79956,308.37616,558.8576C308.3821,558.9042,308.36868,559.0646,308.3472,559.2142C308.33356,559.30176,308.35803,559.39734,308.39175,559.3975C308.39252,559.3975,308.3933,559.39746,308.39413,559.39734C308.39435,559.3973,308.39462,559.3973,308.39487,559.3973C308.40408,559.39734,308.43262,559.4153,308.46188,559.4394C308.48895,559.4618,308.52325,559.48016,308.53784,559.4802C308.5385,559.4802,308.5391,559.48016,308.5397,559.4801C308.53998,559.4801,308.54022,559.48004,308.5405,559.48004C308.54077,559.48004,308.54105,559.4801,308.54135,559.4801C308.57266,559.4802,308.69818,559.5779,308.75113,559.6424C308.7853,559.68536,308.81168,559.8002,308.7867,559.8034C308.76352,559.80634,308.81726,559.97675,308.85327,560.0212C308.87122,560.04254,308.93982,560.07764,309.0051,560.09973C309.12692,560.1417,309.18436,560.1817,309.19196,560.228C309.19385,560.243,309.2024,560.2571,309.2094,560.2596C309.24084,560.2674,309.31018,560.3616,309.31528,560.4014C309.3182,560.4247,309.34036,560.4793,309.36453,560.52356C309.38873,560.5677,309.41025,560.6174,309.41235,560.6339C309.41742,560.67377,309.3716,560.7252,309.30563,560.7504C309.27673,560.76263,309.23187,560.7818,309.20474,560.7937C309.0121,560.88574,308.97327,560.8991,308.84988,560.91144C308.6802,560.9313,308.5351,560.98517,308.35663,561.09564C308.1875,561.1999,308.0466,561.2735,307.76224,561.4008C307.58643,561.4789,307.40244,561.6255,307.37704,561.7047C307.29587,561.9564,307.28873,561.99286,307.22177,562.4758C307.20477,562.60803,307.18387,562.7356,307.1785,562.7599C307.1715,562.7844,307.16632,562.8104,307.16428,562.8208C307.16367,562.8293,307.1512,562.9305,307.13522,563.04395C307.12094,563.1573,307.10114,563.33374,307.09247,563.43787C307.08353,563.5403,307.06747,563.73315,307.05383,563.86487C307.04184,563.9964,307.0274,564.16205,307.0228,564.2318C307.01816,564.30164,307.0102,564.3719,307.0069,564.3858C307.00027,564.4136,307.0004,564.4406,307.00763,564.5377C307.0088,564.5666,307.0072,564.58167,307.00137,564.58167L307.00134,564.58167C306.99942,564.58167,306.99698,564.57996,306.994,564.57654C306.99338,564.5758,306.99283,564.5752,306.9923,564.57477L306.9885,564.57477C306.98563,564.5801,306.98874,564.6045,306.99728,564.64197C307.0084,564.6933,307.00937,564.7202,306.99982,564.7203L306.99976,564.7203C306.99893,564.7203,306.99802,564.72003,306.997,564.71967C306.99527,564.7186,306.99344,564.71814,306.99155,564.71814L306.99146,564.71814C306.98343,564.71814,306.9747,564.7272,306.97086,564.7399C306.96796,564.7572,306.97318,564.77167,306.98193,564.7739C307.00958,564.7789,307.00943,564.81775,306.98416,564.8446C306.9596,564.8707,306.96136,564.9285,306.98587,564.92865C306.98657,564.92865,306.98727,564.9286,306.98807,564.9285C306.9886,564.92847,306.98907,564.9284,306.98956,564.9284C306.9969,564.9284,307.00052,564.936,306.99686,564.9443C306.9924,564.9532,306.9851,564.95795,306.97873,564.95795C306.97736,564.95795,306.97604,564.95764,306.97482,564.9572C306.97412,564.95685,306.97345,564.9566,306.97278,564.9566C306.96674,564.9566,306.96332,564.97296,306.9662,564.9955C306.96936,565.0204,306.95535,565.0965,306.93536,565.16486C306.89966,565.28253,306.89948,565.29443,306.92734,565.3938C306.94467,565.4507,306.97733,565.54785,307.00027,565.6091C307.03122,565.693,307.04333,565.7623,307.0528,565.8895C307.05777,565.9817,307.07733,566.1092,307.09552,566.1728C307.1738,566.45667,307.24554,566.6889,307.26746,566.7284C307.30035,566.7883,307.32364,566.9846,307.31415,567.1092C307.30966,567.16705,307.31934,567.3093,307.33893,567.4504C307.35168,567.534,307.3663,567.6377,307.37872,567.72565L307.3777,567.72565Q307.22244,567.8517,307.1358,568.02246Q306.93558,568.4115,307.1265,569.15375Q307.31396,569.89825,307.91537,571.094Q308.27917,571.82855,309.04514,573.1632L309.04407,573.1632L309.05612,573.2683Q309.07422,573.3982,309.00662,573.4677Q308.63736,573.78845,308.3429,573.8591Q308.35086,573.8783,308.05463,573.8826L308.05573,573.8826L308.04016,574.1101L307.1266,574.074C307.00647,574.0692,306.89633,574.0665,306.79605,574.066C306.78314,574.0659,306.7704,574.06586,306.75778,574.06586C306.3699,574.06586,306.13782,574.0996,306.0566,574.172C305.9732,574.23376,305.61978,574.30457,305.26657,574.3338C305.18295,574.33716,305.1082,574.33954,305.0392,574.33954C305.0343,574.33954,305.02942,574.3395,305.02457,574.3395C304.54712,574.33685,304.34665,574.21375,303.42273,573.5242C303.22626,573.3674,302.85345,573.1888,302.5943,573.1043C302.3351,573.0302,302.0658,572.91455,302.00375,572.8623C301.95856,572.8296,301.8402,572.81274,301.69943,572.81195C301.6959,572.81195,301.69232,572.8119,301.68872,572.8119C301.60724,572.8119,301.51874,572.81726,301.4329,572.828C301.18344,572.86816,300.66403,572.9173,300.2589,572.9462C299.57327,573.00476,299.16742,573.1791,299.16605,573.4283C299.16577,573.48016,299.02963,573.68713,298.85202,573.8834C298.6849,574.06946,298.53818,574.3179,298.53763,574.4217C298.53607,574.71,298.37857,574.82104,297.87283,574.82104C297.86636,574.82104,297.85983,574.82104,297.85324,574.821C297.7259,574.8203,297.57703,574.81287,297.40378,574.7997C296.9367,574.76605,296.17908,574.6996,295.712,574.6659C295.23456,574.6322,294.7989,574.5571,294.73685,574.5048C294.7148,574.4857,294.68982,574.4763,294.66217,574.47614L294.66156,574.47614C294.5986,574.47614,294.522,574.52435,294.4351,574.6174C294.32178,574.7435,294.2045,574.808,294.05078,574.808L294.04794,574.808C293.862,574.80695,293.62262,574.71204,293.27277,574.5176C292.97522,574.3496,292.83896,574.27435,292.73438,574.2738L292.73312,574.2738C292.64905,574.2738,292.5852,574.32227,292.47375,574.4094C292.3107,574.5361,292.20306,574.59515,292.09296,574.59515L292.09125,574.59515C292.00476,574.59467,291.91644,574.5578,291.7984,574.48883C291.73425,574.44556,291.6781,574.4204,291.6155,574.42004L291.61426,574.42004C291.4653,574.42004,291.27933,574.56036,290.86148,574.9302C290.50668,575.26056,290.43332,575.3847,290.4315,575.717C290.4298,576.02844,290.50165,576.18463,290.77014,576.4457L291.111,576.7798L296.43753,576.80884C297.08115,576.8137,297.64917,576.8176,298.15076,576.8204C298.67728,576.82324,299.1306,576.82477,299.5214,576.82477C301.45508,576.82477,301.85718,576.78687,302.0141,576.6835C302.31628,576.48785,302.32764,576.3114,302.05902,576.0607C301.9454,575.95624,301.85263,575.8311,301.8529,575.77924C301.85324,575.71765,301.8868,575.6886,301.94385,575.6886L301.94473,575.6886C302.07053,575.68933,302.30933,575.83014,302.5574,576.0738C302.99118,576.4915,303.38464,576.7013,303.96564,576.78754C304.22095,576.823,304.3768,576.8859,304.44995,576.9916Q305.1206,576.9381,305.64066,576.9381Q305.66772,576.9381,305.6944,576.93823Q305.70908,576.9383,305.7236,576.9385L305.72556,576.93854Q306.5496,576.94604,306.89777,577.1025Q307.22665,577.2527,307.15442,577.5832Q307.02682,578.05005,306.40378,578.48816Q306.37595,578.507,306.34784,578.52496L306.3489,578.52496C306.376,578.6526,305.73422,579.03864,305.50165,579.03864L305.5001,579.03864C305.40628,579.03864,305.1358,579.2135,304.88577,579.41956C303.93744,580.2339,303.6139,580.4817,303.53043,580.4817L303.53006,580.4817C303.4779,580.4817,303.29044,580.6259,303.10272,580.79083C302.8116,581.06024,302.7572,581.0955,301.95462,581.0955C301.8654,581.0955,301.7669,581.0951,301.6578,581.0945C301.63312,581.09436,301.6084,581.0943,301.58365,581.0943C300.99405,581.0943,300.3941,581.1316,300.22437,581.1905C300.04758,581.24146,299.20563,581.40295,298.34305,581.54364C295.45383,582.0263,294.62213,582.2087,294.02866,582.5066C293.5705,582.74286,293.38248,582.9495,293.0884,583.56055C292.89935,583.95404,292.867,584.1719,292.90536,584.75354C292.9687,585.73444,293.04514,586.00244,293.4706,586.48615L293.47354,586.48615Q296.71616,587.4069,300.3009,587.4544Q310.57312,587.3351,317.94717,580.2419Q322.80075,575.3127,324.48868,569.0602L324.49194,569.0602C324.41745,568.94147,324.31766,568.8608,324.19443,568.82996C324.15,568.81757,324.0964,568.81165,324.0362,568.81134L324.03104,568.81134C323.98547,568.81134,323.93616,568.81445,323.88412,568.8204L323.88538,568.8204L322.43402,569.4915L322.43524,569.4915C322.38983,569.51917,322.35037,569.5371,322.3205,569.54333L322.32172,569.54333L322.17453,569.61145L322.17578,569.61145Q322.08258,569.6935,322.00507,569.74457Q321.94916,569.7733,321.91837,569.7733L321.91797,569.7733Q321.91202,569.7733,321.90698,569.77216Q321.8796,569.75977,321.85257,569.74615L321.84866,569.74615L321.86322,569.7747L321.89734,569.8418Q321.81943,569.7637,321.74387,569.68713L321.7451,569.68713Q321.63812,569.6229,321.53705,569.5403L321.53827,569.5403L321.44876,569.50256Q321.42395,569.49207,321.3917,569.4753Q321.23846,569.3947,321.24298,569.394L321.24323,569.394L321.2031,569.3651L321.2019,569.3651Q320.0167,564.93835,318.6142,563.0839Q318.0221,562.3404,317.3653,561.9182L317.36414,561.9182C317.34814,561.8943,317.33163,561.8694,317.3145,561.8433C317.2328,561.71875,317.15073,561.6041,317.1299,561.5866C317.10934,561.5707,317.02927,561.45917,316.94986,561.3393C316.8707,561.221,316.77548,561.0829,316.73547,561.0339C316.69714,560.98474,316.62338,560.86914,316.571,560.77625C316.52036,560.68304,316.45178,560.5684,316.42047,560.52185C316.38904,560.47345,316.3513,560.4023,316.3346,560.36383C316.31787,560.32544,316.25055,560.2209,316.18533,560.13293C316.1187,560.0469,316.0466,559.9445,316.02512,559.90845C316.00345,559.8707,315.94034,559.7994,315.88474,559.74725C315.79672,559.66565,315.78168,559.6405,315.75012,559.53815C315.73004,559.47314,315.69873,559.39954,315.67996,559.3715C315.65955,559.3437,315.64267,559.3036,315.6399,559.282C315.63718,559.26044,315.6292,559.23773,315.62173,559.232C315.60492,559.21893,315.4472,558.81525,315.45593,558.80396C315.45663,558.803,315.45786,558.8025,315.45944,558.8025C315.46402,558.8025,315.47147,558.8067,315.47754,558.81476C315.48428,558.8238,315.51764,558.8279,315.55896,558.8281L315.5624,558.8281C315.63284,558.8281,315.72452,558.81726,315.7476,558.80066C315.78326,558.7759,315.79562,558.7,315.79114,558.5587C315.78708,558.4073,315.78763,558.37177,315.8037,558.3123C315.8204,558.2443,315.78992,558.15027,315.71487,558.0382C315.6463,557.9372,315.57776,557.75684,315.56488,557.64197C315.55963,557.60034,315.56827,557.4962,315.58453,557.4113C315.60052,557.32495,315.61008,557.21405,315.60538,557.1639C315.59845,557.10913,315.60294,557.06464,315.61496,557.053C315.62695,557.0413,315.63147,557.0239,315.62668,557.01263C315.62045,557.00336,315.62747,556.9923,315.64246,556.99036C315.65738,556.9885,315.66818,556.98035,315.66736,556.9737C315.6663,556.96545,315.72037,556.8859,315.7881,556.79456C315.85605,556.7049,315.91013,556.6254,315.9095,556.6205C315.9088,556.6155,315.94614,556.5634,315.9913,556.507C316.0993,556.3734,316.1931,556.2214,316.27957,556.0382C316.31845,555.95886,316.37457,555.8691,316.40637,555.8397C316.4484,555.79895,316.47552,555.7465,316.51062,555.6373C316.53558,555.5548,316.5786,555.4548,316.6055,555.4142C316.63242,555.37366,316.67133,555.2945,316.69302,555.2393C316.76,555.06195,316.85632,554.62427,316.87067,554.4181C316.87634,554.3431,316.88882,554.2554,316.89688,554.22565C316.9047,554.19434,316.915,554.0629,316.91705,553.9327C316.92072,553.80225,316.9259,553.68335,316.92752,553.6697C316.9343,553.62994,316.92596,553.3254,316.914,553.1648C316.87704,552.6614,316.87576,552.63776,316.89948,552.55884C316.91373,552.5114,316.92105,552.4227,316.9169,552.3371L316.90915,552.1963L316.9787,552.17224C317.08395,552.13696,317.10007,552.0909,317.05402,551.9414L317.01678,551.82117L317.05835,551.723C317.0803,551.6696,317.13266,551.57684,317.17386,551.51587C317.3903,551.1997,317.52127,550.92804,317.60938,550.6112C317.6246,550.55865,317.64713,550.4832,317.65906,550.4445C317.701,550.30914,317.74896,550.1021,317.7573,550.0217C317.76828,549.9089,317.73138,549.6451,317.68524,549.52094C317.6439,549.4081,317.55673,549.0545,317.50592,548.80084C317.46625,548.59485,317.36258,548.2838,317.27536,548.1024C317.19522,547.9371,316.9989,547.6411,316.86,547.47815C316.69507,547.28296,316.4507,547.0608,316.35358,547.0139C316.27994,546.9795,316.04733,546.8098,316.04462,546.7881C316.02374,546.65063,315.91504,546.3402,315.88074,546.32263C315.87344,546.3185,315.82492,546.2555,315.77362,546.18427C315.63406,545.99396,315.57675,545.93994,315.47034,545.9394L315.4684,545.9394C315.44928,545.9394,315.42853,545.94116,315.40543,545.94403C315.39944,545.9447,315.39294,545.9452,315.38626,545.9452L315.38504,545.9452C315.3604,545.94507,315.3332,545.94,315.31772,545.9315C315.2797,545.91113,315.04987,545.8829,314.90775,545.8807C314.80276,545.8788,314.74622,545.859,314.648,545.7904C314.5444,545.7192,314.4603,545.615,314.45163,545.54694C314.44788,545.5175,314.43835,545.4937,314.4317,545.4937L314.43115,545.4937C314.424,545.49365,314.39227,545.4542,314.36096,545.4047C314.25092,545.2296,314.07785,545.1166,313.91177,545.1123C313.90878,545.11224,313.90588,545.1122,313.90305,545.1121L313.90164,545.1121C313.8552,545.1121,313.82544,545.1244,313.759,545.1723C313.692,545.2206,313.64822,545.2457,313.58957,545.2457L313.5883,545.2457C313.52255,545.24536,313.438,545.2138,313.28152,545.14856C313.2072,545.11743,313.14862,545.10205,313.09943,545.1018 Z M307.33948,556.21936C307.34338,556.22186,307.34976,556.2301,307.35855,556.2448C307.37357,556.2699,307.38403,556.299,307.3803,556.30963C307.3788,556.312,307.3771,556.31323,307.37512,556.31323C307.3697,556.3132,307.3626,556.30396,307.35553,556.2874C307.33914,556.2491,307.3326,556.2243,307.3357,556.21936 Z M308.65854,565.8481C308.66785,565.8511,308.70135,565.8719,308.73566,565.8985C308.81824,565.9639,308.8383,566.002,308.81656,566.05707C308.80215,566.09656,308.74948,566.1243,308.70502,566.1243L308.70444,566.1243C308.68738,566.12427,308.67154,566.12006,308.65967,566.1108C308.60245,566.06793,308.60013,565.8596,308.65475,565.8481 Z M311.56635,560.2105C311.62665,560.2108,311.77173,560.2873,311.91266,560.3922C312.15552,560.5758,312.29626,560.74023,312.40936,560.9791C312.5241,561.21783,312.553,561.3256,312.5245,561.40686C312.496,561.48816,312.43677,561.56665,312.38013,561.5992C312.33133,561.6273,312.19705,561.7929,312.12433,561.912C312.10217,561.9502,312.06683,562.0307,312.046,562.09247C312.02557,562.1575,311.97485,562.25006,311.92572,562.31537C311.81467,562.4646,311.71344,562.65137,311.65646,562.8139C311.6319,562.8862,311.5787,562.9994,311.53815,563.06537C311.4992,563.13116,311.43713,563.2403,311.40192,563.309C311.3649,563.37616,311.30023,563.46545,311.2565,563.5065C311.21298,563.54913,311.15015,563.6264,311.11664,563.6813C311.0829,563.73456,311.01886,563.82874,310.97266,563.8904C310.92813,563.95166,310.8459,564.0753,310.78995,564.1668C310.73553,564.25653,310.6348,564.3942,310.57016,564.47C310.50403,564.54755,310.44165,564.6282,310.43445,564.651C310.42557,564.674,310.39322,564.7119,310.36276,564.73785C310.33203,564.7619,310.2834,564.8306,310.2556,564.8915C310.19193,565.028,310.2031,565.0097,310.0819,565.1855C310.00595,565.2958,309.9478,565.3849,309.90298,565.4604L309.90186,565.4604L309.78525,565.6113L309.78635,565.6113C309.74985,565.6832,309.70782,565.7519,309.65955,565.8203L309.6606,565.8204Q309.6544,565.90216,309.63928,565.91925Q309.63013,565.9375,309.58902,565.9375L309.58792,565.9375Q309.58072,565.93744,309.57254,565.9369L309.57144,565.9369C309.56058,565.9504,309.54953,565.9639,309.53815,565.9776C309.4076,566.1389,309.16083,566.7424,308.95306,567.36914Q308.91742,567.36835,308.88245,567.36804L308.88138,567.36804C308.87137,567.33295,308.84802,567.26984,308.8231,567.21106C308.76797,567.08307,308.7291,566.96313,308.71063,566.8709C308.70602,566.84784,308.68802,566.786,308.66937,566.73254C308.63037,566.62445,308.60425,566.3525,308.6272,566.2938C308.63608,566.27075,308.66556,566.2502,308.70953,566.23785C308.81857,566.20544,308.9414,566.12225,308.96243,566.06213C308.99487,565.9719,308.92896,565.8385,308.80386,565.7446C308.76663,565.7173,308.7169,565.67126,308.69482,565.6437C308.63464,565.5686,308.63724,565.42975,308.70142,565.21735C308.7516,565.05396,309.05008,564.4132,309.0783,564.40967C309.0866,564.40857,309.1059,564.374,309.12286,564.3347C309.1662,564.2246,309.38168,563.7937,309.409,563.75635C309.42203,563.73956,309.433,563.71954,309.43237,563.7146C309.4292,563.6897,309.6077,563.37994,309.697,563.25885C309.74857,563.1864,309.8032,563.0985,309.8206,563.06244C309.85202,562.9909,309.92892,562.9051,310.0127,562.8472C310.03778,562.8304,310.06122,562.822,310.08316,562.822L310.08365,562.822C310.1214,562.8222,310.1548,562.84735,310.18463,562.89795C310.23428,562.98285,310.35605,563.09064,310.4486,563.1279C310.48657,563.1431,310.51285,563.15027,310.53915,563.15045L310.53967,563.15045C310.55756,563.15045,310.57547,563.1473,310.59714,563.1411C310.70013,563.1145,310.77542,563.0559,310.79858,562.9854C310.8219,562.9166,310.88602,562.8764,310.98987,562.86993C311.15564,562.859,311.214,562.8397,311.25748,562.78357C311.29956,562.72925,311.30643,562.6372,311.27066,562.6215C311.26175,562.61755,311.24606,562.5875,311.23706,562.5566C311.2264,562.5258,311.1968,562.4654,311.1697,562.425C311.1426,562.38446,311.09882,562.30566,311.0715,562.25006C311.00995,562.12445,310.981,562.0826,310.90582,562.00934C310.87106,561.975,310.85025,561.94385,310.85748,561.9345C310.86475,561.92505,310.94843,561.906,311.0427,561.8907C311.24628,561.85803,311.30975,561.8263,311.3725,561.72205L311.41577,561.6507L311.37515,561.59686C311.35098,561.5661,311.30188,561.5251,311.2655,561.50446C311.22885,561.48206,311.159,561.4369,311.11072,561.4025C311.06223,561.36646,311.00333,561.32837,310.9817,561.31757C310.87875,561.2648,310.69693,561.1359,310.63318,561.0731C310.5768,561.0145,310.56366,560.9908,310.5569,560.9241C310.54587,560.8242,310.59018,560.76117,310.7278,560.6879C310.7801,560.6611,310.83698,560.6302,310.85437,560.6212C310.87183,560.61224,310.93658,560.577,310.99677,560.5457C311.15222,560.46686,311.3112,560.3758,311.31946,560.3612C311.32776,560.3467,311.54205,560.213,311.55865,560.21094C311.56107,560.2107,311.5636,560.2105,311.56635,560.2105 Z M299.68237,574.316C299.75073,574.31635,299.78357,574.4309,299.78235,574.657C299.78098,574.907,299.66122,575.05597,299.48163,575.05597L299.47986,575.05597C299.42865,575.05566,299.37262,575.04333,299.31314,575.0178C299.18875,574.9756,299.19952,574.90295,299.3984,574.6133C299.5243,574.4143,299.61844,574.316,299.682,574.316 Z M300.58066,574.8586C300.5841,574.8586,300.5876,574.85864,300.59116,574.85864C300.69498,574.8592,300.82968,574.9118,300.90195,574.9849C301.07724,575.1621,301.05505,575.48315,300.86902,575.48315L300.8681,575.48315C300.78503,575.4827,300.65085,575.3366,300.55832,575.1699C300.40726,574.8842,300.41428,574.8586,300.58066,574.8586 Z"/> </g> <g style="fill:rgb(0,0,0); fill-opacity:1.0; stroke-linejoin: miter"> <path d="M280.07675,577.03534Q280.9893,578.29816,282.07834,579.4884L282.08118,579.4884C285.1382,579.5092,287.9402,579.53687,288.04318,579.5562C288.08508,579.5564,288.10944,581.5317,288.11215,584.23724L288.11508,584.23724Q289.01563,584.74976,289.94815,585.18066L289.9482,585.18066C289.9827,581.8816,290.04172,579.6148,290.0886,579.5777C290.12042,579.55884,291.20715,579.5496,292.83917,579.5496C293.87744,579.5496,295.1364,579.55334,296.48486,579.5607C297.46796,579.5661,298.40182,579.56866,299.23587,579.56866C301.344,579.56866,302.8143,579.5522,302.82928,579.52246C302.86075,579.47076,303.08987,579.3474,303.32928,579.23456C303.82886,579.01917,303.91266,578.8847,303.91577,578.3136C303.91748,578.0022,303.84555,577.8563,303.5254,577.54315L303.1329,577.1568L286.6861,577.06714L280.07956,577.03534 Z"/> </g> <g style="fill:rgb(255,255,255); fill-opacity:1.0; stroke-linejoin: miter"> <path d="M312.73962,553.878Q312.11685,553.884,311.66107,554.31934Q311.21844,554.7704,311.207,555.4003Q311.2157,556.0327,311.64786,556.48065Q312.09546,556.9218,312.72784,556.93506Q313.3507,556.93054,313.80768,556.49615Q314.25134,556.0459,314.26407,555.416Q314.25888,554.7859,313.82114,554.3303Q313.37256,553.8899,312.74008,553.878"/> </g> <g style="fill:rgb(255,255,255); fill-opacity:1.0; stroke-linejoin: miter"> <path d="M310.139,549.11487C310.06165,549.125,309.99808,549.12897,309.9164,549.1285C309.88593,549.12836,309.85294,549.12756,309.81573,549.1263C309.78375,549.12494,309.75034,549.1242,309.71582,549.124C309.45685,549.1226,309.1374,549.1528,308.92148,549.1944L308.9253,549.19446L312.08185,554.7047L313.2989,554.3961L310.14285,549.11487L310.139,549.11487 Z"/> </g> <g style="fill:rgb(255,255,255); fill-opacity:1.0; stroke-linejoin: miter"> <path d="M312.1165,555.96075Q311.8866,556.3518,309.83435,558.86115Q309.76785,558.977,309.87137,559.06134Q309.9714,559.1192,310.05734,559.0349Q311.85666,556.8316,312.1641,556.38513L312.34952,556.12134L312.11993,555.96313"/> </g> <g style="fill:rgb(255,255,255); fill-opacity:1.0; stroke-linejoin: miter"> <path d="M309.7214,558.7169Q309.57602,558.7225,309.475,558.8253Q309.37607,558.9324,309.37744,559.0758Q309.38242,559.21985,309.48502,559.32184Q309.59192,559.4212,309.73532,559.4201Q309.88074,559.4153,309.9822,559.3128Q310.08167,559.20605,310.08078,559.06256Q310.0757,558.9164,309.97318,558.81525Q309.86624,558.7159,309.7228,558.71686"/> </g> <g style="fill:rgb(6,0,0); fill-opacity:1.0; stroke-linejoin: miter"> <path d="M312.7404,554.86945Q312.51886,554.8709,312.35938,555.02313Q312.20343,555.1821,312.19846,555.4004Q312.19925,555.622,312.35196,555.78265Q312.50848,555.93774,312.72968,555.94366Q312.9512,555.9425,313.11102,555.79065Q313.26736,555.6319,313.27264,555.4136Q313.2722,555.192,313.11984,555.0312Q312.96365,554.87573,312.74246,554.86945"/> </g> <g style="fill:rgb(6,0,0); fill-opacity:1.0; stroke-linejoin: miter"> <path d="M282.48886,556.63086L282.4383,572.56903L285.2756,572.5636L285.327,556.6515L282.48926,556.6309"/> </g> <g style="fill:rgb(6,0,0); fill-opacity:1.0; stroke-linejoin: miter"> <path d="M283.44705,571.93805L283.41776,574.6749L283.4365,574.6767L284.22208,574.68506L284.25186,571.9498L283.44803,571.9381"/> </g> <g style="fill:rgb(6,0,0); fill-opacity:1.0; stroke-linejoin: miter"> <path d="M280.87424,574.2004L280.84534,577.1965L286.73804,577.2596Q286.77057,577.2618,286.76575,577.2562L286.79785,574.2645L280.8833,574.2005"/> </g> </g> </svg>